#define noname_width 6
#define noname_height 10
static char noname_bits[] = {
 0x38,0x2c,0x0c,0x1c,0x1c,0x36,0x33,0x13,0x13,0x0e};
