#define noname_width 9
#define noname_height 10
static char noname_bits[] = {
 0xff,0x01,0x86,0x01,0x0e,0x01,0x1c,0x01,0x18,0x00,0x18,0x00,0x18,0x01,0x0c,
 0x01,0x86,0x01,0xff,0x01};
