#define noname_width 206
#define noname_height 32
static char noname_bits[] = {
 0xff,0x30,0x00,0x00,0x01,0x00,0xfc,0x00,0x00,0x00,0x00,0xf0,0x0f,0x00,0x00,
 0x00,0x20,0x30,0x00,0xf8,0x01,0x00,0xfc,0x00,0x00,0x00,0xcc,0x30,0x00,0x80,
 0x01,0x00,0x98,0x01,0x00,0x00,0x00,0xc0,0x0c,0x00,0x00,0x00,0x30,0x30,0x00,
 0x30,0x03,0x00,0x98,0x01,0x00,0x00,0x8c,0x30,0x00,0xc0,0x01,0x00,0x8c,0x01,
 0x00,0x00,0x00,0xc0,0x08,0x00,0x00,0x00,0x38,0x30,0x00,0x18,0x03,0x00,0x8c,
 0x01,0x00,0x00,0x8c,0x30,0x00,0x40,0x01,0x00,0x8c,0x01,0x00,0x00,0x00,0xc0,
 0x08,0x00,0x00,0x00,0x28,0x30,0x00,0x18,0x03,0x00,0x8c,0x01,0x00,0x00,0x0c,
 0xf0,0x07,0x60,0x01,0x03,0xcc,0xf9,0x3c,0x3f,0x00,0xc0,0x00,0xf0,0x83,0x01,
 0x2c,0xf0,0x07,0x98,0x03,0x03,0xcc,0xf9,0x3c,0x3f,0x0c,0xf0,0x0f,0x20,0x01,
 0x03,0xfc,0xfc,0xa6,0x37,0x00,0xc0,0x00,0xd0,0x83,0x01,0x24,0xf0,0x0f,0xf8,
 0x01,0x03,0xfc,0xfc,0xa6,0x37,0x0c,0x30,0x00,0xf0,0x03,0x00,0x06,0x18,0x63,
 0x33,0x00,0xc0,0x00,0xc0,0x00,0x00,0x7e,0x30,0x00,0x0c,0x00,0x00,0x06,0x18,
 0x63,0x33,0x0c,0x30,0x00,0x18,0x03,0x00,0x06,0x18,0x33,0x33,0x00,0xc0,0x00,
 0x40,0x00,0x00,0x63,0x30,0x00,0x0c,0x00,0x00,0x06,0x18,0x33,0x33,0x0c,0x30,
 0x00,0x08,0x03,0x03,0x06,0x18,0x33,0x1b,0x00,0xc0,0x60,0x78,0x83,0x01,0x61,
 0x30,0x00,0x0c,0x00,0x03,0x06,0x18,0x33,0x1b,0x1f,0x30,0x00,0x9e,0x07,0x83,
 0x0f,0x18,0x1e,0x0f,0x00,0xf0,0x61,0xf8,0x81,0xc1,0xf3,0x30,0x00,0x1f,0x00,
 0x83,0x0f,0x18,0x1e,0x0f,0x00,0x00,0x00,0x00,0x00,0x00,0x00,0x00,0x80,0x01,
 0x00,0x00,0x40,0x00,0x00,0x00,0x00,0x00,0x00,0x00,0x00,0x00,0x00,0x00,0x80,
 0x01,0x00,0x00,0x00,0x00,0x00,0x00,0x00,0x00,0x80,0x01,0x00,0x00,0x40,0x00,
 0x00,0x00,0x00,0x00,0x00,0x00,0x00,0x00,0x00,0x00,0x80,0x01,0x00,0x00,0x00,
 0x00,0x00,0x00,0x00,0x00,0xc0,0x03,0x00,0x00,0x20,0x00,0x00,0x00,0x00,0x00,
 0x00,0x00,0x00,0x00,0x00,0x00,0xc0,0x03,0x00,0x00,0x00,0x00,0x00,0x00,0x00,
 0x00,0x00,0x00,0x00,0x00,0x00,0x00,0x00,0x00,0x00,0x00,0x00,0x00,0x00,0x00,
 0x00,0x00,0x00,0x00,0x00,0x00,0x00,0x00,0x00,0x00,0x00,0x00,0x00,0x00,0x00,
 0x00,0x00,0x00,0x00,0x00,0x00,0x00,0x00,0x00,0x00,0x00,0x00,0x00,0x00,0x00,
 0x00,0x00,0x00,0x00,0x00,0x00,0x00,0x00,0x00,0x00,0x00,0x00,0x00,0x00,0x00,
 0x00,0x00,0x00,0x00,0x00,0x00,0x00,0x00,0x00,0x00,0x00,0xff,0xff,0xff,0xff,
 0xff,0xff,0xff,0xff,0xff,0xff,0xff,0xff,0xff,0xff,0xff,0xff,0xff,0xff,0xff,
 0xff,0xff,0xff,0xff,0xff,0xff,0x3f,0x00,0x00,0x00,0x00,0x00,0x00,0x00,0x00,
 0x00,0x00,0x00,0x00,0x00,0x00,0x00,0x00,0x00,0x00,0x00,0x00,0x00,0x00,0x00,
 0x00,0x00,0x00,0x00,0x00,0x00,0x00,0x00,0x00,0x00,0x00,0x00,0x00,0x00,0x00,
 0x00,0x00,0x00,0x00,0x00,0x00,0x00,0x00,0x00,0x00,0x00,0x00,0x00,0x00,0x00,
 0x00,0x00,0x00,0x00,0xc0,0x3f,0x0c,0x80,0xff,0x00,0x00,0x10,0xc0,0x0f,0x00,
 0xf0,0x03,0x00,0x00,0x00,0x00,0x00,0x00,0x00,0x00,0x00,0x00,0x00,0x00,0x00,
 0x00,0x33,0x0c,0x00,0xc3,0x00,0x00,0x18,0x80,0x19,0x00,0x60,0x06,0x00,0x00,
 0x00,0x00,0x00,0x00,0x00,0x00,0x00,0x00,0x00,0x00,0x00,0x00,0x23,0x0c,0x00,
 0x87,0x00,0x00,0x1c,0xc0,0x18,0x00,0x30,0x06,0x00,0x00,0x00,0x00,0x00,0x00,
 0x00,0x00,0x00,0x00,0x00,0x00,0x00,0x00,0x23,0x0c,0x00,0x8e,0x00,0x00,0x14,
 0xc0,0x18,0x00,0x30,0x06,0x00,0x00,0x00,0x00,0x00,0x00,0x00,0x00,0x00,0x00,
 0x00,0x00,0x00,0x00,0x03,0xfc,0x01,0x0c,0xfc,0x0c,0x16,0xc0,0x1c,0x0c,0x30,
 0xe7,0xe3,0xfd,0x00,0x00,0x00,0x00,0x00,0x00,0x00,0x00,0x00,0x00,0x00,0x00,
 0x03,0xfc,0x03,0x0c,0xf4,0x0c,0x12,0xc0,0x0f,0x0c,0xf0,0xf3,0x33,0xdf,0x00,
 0x00,0x00,0x00,0x00,0x00,0x00,0x00,0x00,0x00,0x00,0x00,0x03,0x0c,0x00,0x8c,
 0x30,0x00,0x3f,0x60,0x00,0x00,0x18,0x60,0x18,0xcf,0x00,0x00,0x00,0x00,0x00,
 0x00,0x00,0x00,0x00,0x00,0x00,0x00,0x03,0x0c,0x00,0x86,0x10,0x80,0x31,0x60,
 0x00,0x00,0x18,0x60,0x98,0xcd,0x00,0x00,0x00,0x00,0x00,0x00,0x00,0x00,0x00,
 0x00,0x00,0x00,0x03,0x0c,0x00,0xc3,0xde,0x8c,0x30,0x63,0x00,0x0c,0x18,0x60,
 0x98,0x6d,0x00,0x00,0x00,0x00,0x00,0x00,0x00,0x00,0x00,0x00,0x00,0xc0,0x07,
 0x0c,0x80,0xff,0x7e,0xec,0x79,0xfb,0x00,0x0c,0x3e,0x60,0xf0,0x3c,0x00,0x00,
 0x00,0x00,0x00,0x00,0x00,0x00,0x00,0x00,0x00,0x00,0x00,0x00,0x00,0x00,0x00,
 0x00,0x00,0x00,0x00,0x00,0x00,0x00,0x00,0x06,0x00,0x00,0x00,0x00,0x00,0x00,
 0x00,0x00,0x00,0x00,0x00,0x00,0x00,0x00,0x00,0x00,0x00,0x00,0x00,0x00,0x00,
 0x00,0x00,0x00,0x00,0x06,0x00,0x00,0x00,0x00,0x00,0x00,0x00,0x00,0x00,0x00,
 0x00,0x00,0x00,0x00,0x00,0x00,0x00,0x00,0x00,0x00,0x00,0x00,0x00,0x00,0x00,
 0x0f,0x00,0x00,0x00,0x00,0x00,0x00};
